# File created by Blade
# Date/Time:  Tue Jan 27 19:18:41 2015
# Frame Rate: 120.000 fps
#------------------------------------------------------
:FULLY-SPECIFIED
:DEGREES
2336
root 3.550858 32.290037 1.263545 -2.666667 2.642431 0.569150
Spine -0.371656 2.337343 -0.537455
Head 8.396959 -17.547672 -4.845718
LeftShoulder -6.771456 -5.489469 25.356906
LeftArm -5.430962 42.711151 -103.120086
LeftForeArm 3.911710 -0.000000 16.133919
LeftHand 10.436504 -0.000000 -4.891584
LeftHandThumb1 -26.253704 0.000000 33.147579
RightShoulder -16.321480 -1.982346 -37.864606
RightArm 7.867862 74.383948 44.564231
RightForeArm 13.972975 -0.000000 121.655109
RightHand 29.586845 -0.000000 -25.840039
RightHandThumb1 -24.326973 -0.000000 -32.862282
LeftUpLeg 9.542957 -0.943157 0.060229
LeftLeg 2.050145 -0.000000 -0.000000
LeftFoot -17.701169 11.876069 -23.167865
LeftToeBase 16.819234 -0.000000 -0.000000
RightUpLeg 9.162156 -9.100189 1.828707
RightLeg 0.287052 -0.000000 -0.000000
RightFoot -13.462222 -14.725391 14.045735
RightToeBase 10.125757 -0.000000 -0.000000
2337
root 3.547094 32.289680 1.262444 -2.673206 2.592797 0.564214
Spine -0.366506 2.363195 -0.473048
Head 8.528292 -17.409148 -5.201195
LeftShoulder -6.784697 -5.494239 25.310132
LeftArm -5.401651 42.741744 -103.095413
LeftForeArm 3.885627 -0.000000 16.154882
LeftHand 10.352937 0.000000 -4.800241
LeftHandThumb1 -26.253704 0.000000 33.147579
RightShoulder -16.278852 -1.969785 -37.835322
RightArm 8.454092 74.455798 45.028910
RightForeArm 13.060256 -0.000000 123.433880
RightHand 29.617077 -0.000000 -26.314333
RightHandThumb1 -24.326973 -0.000000 -32.862282
LeftUpLeg 9.556989 -0.915962 0.070669
LeftLeg 2.052670 -0.000000 -0.000000
LeftFoot -17.700193 11.811116 -23.363671
LeftToeBase 16.496488 -0.000000 -0.000000
RightUpLeg 9.158756 -9.083310 1.840746
RightLeg 0.287764 -0.000000 -0.000000
RightFoot -13.439228 -14.717707 13.990537
RightToeBase 10.130285 -0.000000 -0.000000
2338
root 3.544481 32.288892 1.260960 -2.682851 2.543200 0.562388
Spine -0.357843 2.389580 -0.405007
Head 8.662760 -17.300644 -5.564129
LeftShoulder -6.807294 -5.513030 25.255020
LeftArm -5.375579 42.731214 -103.071447
LeftForeArm 3.914289 -0.000000 16.170394
LeftHand 10.228736 -0.000000 -4.628821
LeftHandThumb1 -26.253704 0.000000 33.147579
RightShoulder -16.239731 -1.982834 -37.813472
RightArm 9.097810 74.460063 45.543013
RightForeArm 12.156627 -0.000000 125.150588
RightHand 29.850807 -0.000000 -26.577537
RightHandThumb1 -24.326973 -0.000000 -32.862282
LeftUpLeg 9.566852 -0.882911 0.076491
LeftLeg 2.070295 -0.000000 -0.000000
LeftFoot -17.729692 11.800800 -23.395963
LeftToeBase 16.499929 -0.000000 -0.000000
RightUpLeg 9.156165 -9.048281 1.847572
RightLeg 0.297113 -0.000000 -0.000000
RightFoot -13.439373 -14.704613 13.972722
RightToeBase 10.071579 -0.000000 -0.000000
2339
root 3.541701 32.287715 1.260159 -2.693788 2.487385 0.565181
Spine -0.356714 2.428798 -0.342634
Head 8.793558 -17.214233 -5.943558
LeftShoulder -6.808328 -5.501313 25.201287
LeftArm -5.321668 42.697014 -103.027584
LeftForeArm 3.930788 0.000000 16.177043
LeftHand 10.280211 -0.000000 -4.726812
LeftHandThumb1 -26.253704 0.000000 33.147579
RightShoulder -16.182248 -1.949418 -37.843043
RightArm 9.483387 74.379966 45.842219
RightForeArm 11.096658 0.000000 126.817814
RightHand 30.154811 0.000000 -26.983399
RightHandThumb1 -24.326973 -0.000000 -32.862282
LeftUpLeg 9.587722 -0.856369 0.076803
LeftLeg 2.057867 -0.000000 -0.000000
LeftFoot -17.735347 11.822555 -23.412221
LeftToeBase 16.553499 -0.000000 -0.000000
RightUpLeg 9.145218 -8.941716 1.855497
RightLeg 0.339189 -0.000000 -0.000000
RightFoot -13.623243 -14.706540 14.225184
RightToeBase 10.571890 -0.000000 -0.000000
2340
root 3.540403 32.287244 1.259131 -2.700766 2.434106 0.572964
Spine -0.360231 2.468356 -0.288662
Head 8.920058 -17.119901 -6.295871
LeftShoulder -6.804383 -5.476855 25.138361
LeftArm -5.258052 42.617444 -102.969982
LeftForeArm 3.955639 -0.000000 16.182994
LeftHand 10.367449 -0.000000 -4.744557
LeftHandThumb1 -26.253704 0.000000 33.147579
RightShoulder -16.134327 -1.886060 -37.882905
RightArm 9.807562 74.237126 46.071856
RightForeArm 9.995846 -0.000000 128.376326
RightHand 30.431432 0.000000 -27.727490
RightHandThumb1 -24.326973 -0.000000 -32.862282
LeftUpLeg 9.597756 -0.815514 0.071839
LeftLeg 2.058860 -0.000000 -0.000000
LeftFoot -17.758049 11.902435 -23.239645
LeftToeBase 16.821836 -0.000000 -0.000000
RightUpLeg 9.151649 -8.902550 1.851294
RightLeg 0.325304 -0.000000 -0.000000
RightFoot -13.611941 -14.702759 14.217060
RightToeBase 10.518598 -0.000000 -0.000000
